<?xml version="1.0" encoding="utf-8"?>
<!-- Svg Vector Icons : http://www.sfont.cn -->
<!DOCTYPE svg PUBLIC "-//W3C//DTD SVG 1.1//EN" "http://www.w3.org/Graphics/SVG/1.1/DTD/svg11.dtd">
<svg version="1.1" xmlns="http://www.w3.org/2000/svg" xmlns:xlink="http://www.w3.org/1999/xlink" x="0px" y="0px" viewBox="0 0 1000 1000" enable-background="new 0 0 1000 1000" xml:space="preserve">
<metadata> Svg Vector Icons : http://www.sfont.cn </metadata>
<g><path d="M258.5,731c-71.7,0-130.1,58.3-130.1,130c0,71.6,58.4,129.9,130.1,129.9c71.6,0,130-58.3,130-129.9C388.5,789.3,330.1,731,258.5,731 M258.5,931.7c-39,0-70.7-31.7-70.7-70.7c0-39,31.7-70.7,70.7-70.7c38.9,0,70.6,31.7,70.6,70.7C329.1,900,297.4,931.7,258.5,931.7"/><path d="M699.1,731c-71.7,0-130,58.3-130,130c0,71.6,58.3,129.9,130,129.9c71.6,0,130-58.3,130-129.9C829.1,789.3,770.8,731,699.1,731 M699.1,931.7c-39,0-70.7-31.7-70.7-70.7c0-39,31.7-70.7,70.7-70.7c38.9,0,70.7,31.7,70.7,70.7C769.8,900,738.1,931.7,699.1,931.7"/><path d="M984.7,55.6c9.3-13.5,6-32-7.5-41.3c-13.5-9.3-32-5.9-41.3,7.5l-92.2,132.8l-804.2,0.9c-10.5,0-20.1,5.5-25.6,14.6c-5.3,9.1-5.4,20.3-0.4,29.4l182.5,330.8c5.3,9.5,15.2,15.4,25.9,15.4h544.1l54.2,88.6H95.7c-16.4,0-29.7,13.3-29.7,29.7c0,16.3,13.3,29.6,29.7,29.6h777.6c10.7,0,20.6-5.8,25.9-15.1c5.3-9.3,5-20.8-0.6-30l-84.1-137.6l72.5-314.3L984.7,55.6z M759.2,486.3H239.7L89.8,214.8l732.3-0.8L759.2,486.3z"/></g>
</svg>